HIERARCHY
ROOT root
{
	OFFSET	0	13.1	24.9
	CHANNELS 6  Xposition Yposition Zposition Xrotation Yrotation Zrotation
	JOINT spine_1
	{
		OFFSET	0	9.99999	0
		CHANNELS 3  Xrotation Yrotation Zrotation
		JOINT spine_2
		{
			OFFSET	0	112	-10
			CHANNELS 3  Xrotation Yrotation Zrotation
			JOINT spine_3
			{
				OFFSET	0	206.5	19.3
				CHANNELS 3  Xrotation Yrotation Zrotation
				JOINT spine_4
				{
					OFFSET	0	110.4	14.6
					CHANNELS 3  Xrotation Yrotation Zrotation
					JOINT neck_1
					{
						OFFSET	0	71.8	-50.3
						CHANNELS 3  Xrotation Yrotation Zrotation
						JOINT neck_2
						{
							OFFSET	0	86.2	-25.8
							CHANNELS 3  Xrotation Yrotation Zrotation
							JOINT head_ee
							{
								OFFSET	0	179.8	-8.7
								CHANNELS 3  Xrotation Yrotation Zrotation
								End Site
								{
									OFFSET	1	0	0
								}
							}
						}
					}
					JOINT left_clavicle
					{
						OFFSET	-43.2	22.4	-70.8
						CHANNELS 3  Xrotation Yrotation Zrotation
						JOINT left_shoulder
						{
							OFFSET	-93.9	-5.79999	48.7
							CHANNELS 3  Xrotation Yrotation Zrotation
							JOINT left_elbow
							{
								OFFSET	-291.4	-30.8	15.2
								CHANNELS 3  Xrotation Yrotation Zrotation
								JOINT left_lowarm_twist
								{
									OFFSET	-110.7	-3.89999	13.6
									CHANNELS 3  Xrotation Yrotation Zrotation
									JOINT left_hand
									{
										OFFSET	-110.7	-3.89999	13.6
										CHANNELS 3  Xrotation Yrotation Zrotation
										JOINT left_ee
										{
											OFFSET	-80.8	-5.10001	12.1
											CHANNELS 3  Xrotation Yrotation Zrotation
											End Site
											{
												OFFSET	1	0	0
											}
										}
									}
								}
							}
						}
					}
					JOINT right_clavicle
					{
						OFFSET	43.2	22.4	-70.8
						CHANNELS 3  Xrotation Yrotation Zrotation
						JOINT right_shoulder
						{
							OFFSET	93.9	-5.79999	48.7
							CHANNELS 3  Xrotation Yrotation Zrotation
							JOINT right_elbow
							{
								OFFSET	291.4	-30.8	15.2
								CHANNELS 3  Xrotation Yrotation Zrotation
								JOINT right_lowarm_twist
								{
									OFFSET	110.7	-3.89999	13.6
									CHANNELS 3  Xrotation Yrotation Zrotation
									JOINT right_hand
									{
										OFFSET	110.7	-3.89999	13.6
										CHANNELS 3  Xrotation Yrotation Zrotation
										JOINT right_ee
										{
											OFFSET	80.8	-5.10001	12.1
											CHANNELS 3  Xrotation Yrotation Zrotation
											End Site
											{
												OFFSET	1	0	0
											}
										}
									}
								}
							}
						}
					}
				}
			}
		}
	}
	JOINT left_hip
	{
		OFFSET	-82.8	-127.5	0.300001
		CHANNELS 3  Xrotation Yrotation Zrotation
		JOINT left_knee
		{
			OFFSET	-28.2	-396.7	2.2
			CHANNELS 3  Xrotation Yrotation Zrotation
			JOINT left_ankle
			{
				OFFSET	-11.7	-411.3	35.4
				CHANNELS 3  Xrotation Yrotation Zrotation
				JOINT left_toes
				{
					OFFSET	0	-60	-88.6
					CHANNELS 3  Xrotation Yrotation Zrotation
					JOINT left_foot_ee
					{
						OFFSET	-22.5	-16.5	-42.2
						CHANNELS 3  Xrotation Yrotation Zrotation
						End Site
						{
							OFFSET	1	0	0
						}
					}
				}
			}
		}
	}
	JOINT right_hip
	{
		OFFSET	82.8	-127.5	0.300001
		CHANNELS 3  Xrotation Yrotation Zrotation
		JOINT right_knee
		{
			OFFSET	28.2	-396.7	2.2
			CHANNELS 3  Xrotation Yrotation Zrotation
			JOINT right_ankle
			{
				OFFSET	11.7	-411.3	35.4
				CHANNELS 3  Xrotation Yrotation Zrotation
				JOINT right_toes
				{
					OFFSET	0	-60	-88.6
					CHANNELS 3  Xrotation Yrotation Zrotation
					JOINT right_foot_ee
					{
						OFFSET	22.5	-16.5	-42.2
						CHANNELS 3  Xrotation Yrotation Zrotation
						End Site
						{
							OFFSET	1	0	0
						}
					}
				}
			}
		}
	}
}
MOTION
Frames: 6
Frame Time: 0.02
409.279197493 712.713 -1180.23598372 -157.200100831 -57.6882798937 -153.992642266 4.28924 -0.49928 -2.21774 4.2919 -0.357184 -2.245 4.30413 -0.0481858 -2.27271 4.29716 -0.406423 -2.23661 -8.29826 -2.73364 3.55037 -8.26483 -7.60203 2.90579 -0.0 0.0 -0.0 5.11064 -0.445107 9.86232 2.76084 -21.7236 76.8581 1.32055 -33.1896 0.393558 85.4735 -4.48331 -8.88773 -8.36943 27.1265 -39.107 -0.0 0.0 -0.0 1.29462 -17.2427 -4.01872 -8.27161 17.1468 -71.0434 0.400885 11.2323 -0.0394212 50.018 0.970101 6.11524 0.270555 -28.0086 -12.5065 0.0 0.0 0.0 13.0937 -1.71814 -1.60601 3.45652 -0.157694 -0.506835 28.0698 -13.6013 -3.91153 8.82682 -0.0 -0.0 -0.0 0.0 -0.0 18.2229 -2.88682 -4.16913 -20.6969 -0.286702 -3.14593 36.7308 -28.7837 4.96954 -8.55695 0.0 0.0 0.0 0.0 0.0 
410.57790857 710.758 -1176.14548775 -157.151537618 -56.6958139658 -154.099584488 4.35 -0.562613 -2.21219 4.35263 -0.420742 -2.24348 4.36731 -0.113923 -2.27973 4.36037 -0.472444 -2.23317 -9.53875 -2.52649 3.24349 -9.51844 -6.96235 2.56602 -0.0 0.0 -0.0 4.2963 -1.05282 8.24266 3.05032 -24.204 78.7589 1.55156 -37.5431 0.527363 85.4588 -4.48154 -8.88707 -8.67328 30.1009 -37.6393 -0.0 0.0 -0.0 -1.35256 -24.5751 -1.02981 -12.0444 20.1651 -72.3603 0.698706 19.0917 -0.1175 46.4034 0.723526 5.72376 0.0690502 -27.9655 -11.3674 0.0 0.0 0.0 12.9264 -0.960719 -1.81804 4.16793 -0.193937 -0.609944 32.4885 -13.16 -4.38612 6.70636 -0.0 -0.0 -0.0 0.0 -0.0 18.5328 -4.28515 -4.37614 -21.8861 -0.268463 -3.32748 39.7367 -26.7783 5.20327 -6.05754 0.0 0.0 0.0 0.0 0.0 
413.183787292 709.168 -1173.22256877 -157.299218437 -55.2000952537 -154.653337643 4.61284 -0.581528 -2.15336 4.61531 -0.443359 -2.18598 4.63034 -0.154337 -2.22513 4.62379 -0.503734 -2.17287 -10.1912 -2.36223 3.10337 -10.1757 -6.53782 2.42847 -0.0 0.0 -0.0 3.83084 -2.37284 7.2571 3.38341 -25.8498 80.0773 1.7249 -40.5092 0.636548 85.1813 -4.44824 -8.87446 -8.39054 30.1611 -35.5581 -0.0 0.0 -0.0 -3.1978 -26.495 1.04629 -13.5895 19.3859 -73.7177 0.956952 25.3627 -0.215335 43.8687 0.565634 5.44045 -0.235553 -27.8815 -9.6472 0.0 0.0 0.0 12.7632 -0.419393 -1.97103 4.64271 -0.218837 -0.678505 37.1018 -13.0261 -4.84221 5.18636 -0.0 -0.0 -0.0 0.0 -0.0 18.6582 -5.13053 -4.36014 -21.4038 -0.276315 -3.25389 42.1225 -24.6157 5.35401 -4.0911 0.0 0.0 0.0 0.0 0.0 
432.598014027 709.707 -1161.58105745 -160.644596272 -53.8855956368 -157.21918085 4.85834 -0.550526 -2.35561 4.86134 -0.399561 -2.38584 4.87549 -0.0951481 -2.41718 4.86765 -0.475593 -2.37186 -11.0337 -2.41967 2.32493 -11.0329 -6.10534 1.60828 -0.0 0.0 -0.0 3.78321 -3.91982 7.06959 4.69271 -26.5022 81.0406 1.62486 -38.8279 0.572684 83.7701 -4.27986 -8.80784 -7.24107 29.105 -29.0615 -0.0 0.0 -0.0 -5.1583 -27.1566 3.39749 -15.5101 16.8375 -75.5311 1.10104 28.6083 -0.280746 37.8364 0.241536 4.74062 -1.52246 -26.649 -2.04459 0.0 0.0 0.0 10.3522 -0.359992 -1.84567 2.98324 -0.134296 -0.438001 39.2985 -12.4301 -5.02683 3.60873 -0.0 -0.0 -0.0 0.0 -0.0 22.4498 -9.59303 -3.09585 -20.2665 -0.292375 -3.08012 42.5632 -24.5383 5.3914 -0.105406 0.0 0.0 0.0 0.0 0.0 
439.859912765 712.032 -1158.79071451 -160.012765163 -55.1552496103 -156.864032015 4.90472 -0.480842 -2.34331 4.90772 -0.3308 -2.36914 4.91888 -0.0307972 -2.39191 4.91112 -0.408063 -2.35707 -11.3662 -2.4139 2.26401 -11.3674 -6.04758 1.53265 -0.0 0.0 -0.0 3.79976 -4.32093 7.0777 5.11658 -26.3649 80.6491 1.5795 -38.0381 0.544482 83.3754 -4.23307 -8.78847 -6.71451 28.624 -26.2036 -0.0 0.0 -0.0 -5.3487 -26.9909 3.68619 -15.9661 16.1107 -76.0845 1.14202 29.497 -0.300646 35.5039 0.13629 4.46161 -2.01065 -25.8997 1.01278 0.0 0.0 0.0 9.82398 -0.328849 -1.6873 2.13843 -0.0939481 -0.314668 38.9768 -12.1143 -4.9896 3.16857 -0.0 -0.0 -0.0 0.0 -0.0 22.6998 -12.1608 -3.80178 -20.6455 -0.287406 -3.13807 42.8366 -24.2968 5.40784 1.7875 -0.0 -0.0 0.0 0.0 0.0 
440.395905701 712.032 -1159.36451587 -159.673749902 -55.790637726 -156.452542021 4.90472 -0.480842 -2.34331 4.90772 -0.3308 -2.36914 4.91888 -0.0307972 -2.39191 4.91112 -0.408063 -2.35707 -11.3662 -2.4139 2.26401 -11.3674 -6.04758 1.53265 -0.0 0.0 -0.0 3.79976 -4.32093 7.0777 5.11658 -26.3649 80.6491 1.5795 -38.0381 0.544482 83.3754 -4.23307 -8.78847 -6.71451 28.624 -26.2036 -0.0 0.0 -0.0 -5.3487 -26.9909 3.68619 -15.9661 16.1107 -76.0845 1.14202 29.497 -0.300646 35.5039 0.13629 4.46161 -2.01065 -25.8997 1.01278 0.0 0.0 0.0 9.82398 -0.328849 -1.6873 2.13843 -0.0939481 -0.314668 38.9768 -12.1143 -4.9896 3.16857 -0.0 -0.0 -0.0 0.0 -0.0 22.6998 -12.1608 -3.80178 -20.6455 -0.287406 -3.13807 42.8366 -24.2968 5.40784 1.7875 -0.0 -0.0 0.0 0.0 0.0 
